# xmcd CD database file
# Copyright (C) 1993-1998 Ti Kan
#
# Track frame offsets:
#	150
#	16220
#	34285
#	51840
#	66125
#	85627
#	100765
#	113400
#	123960
#	138180
#
# Disc length: 2131 seconds
#
# Revision: 1
# Processed by: cddbd v1.4b41PL1 Copyright (c) Steve Scherf et al.
# Submitted via: QuintessentialCD v1.1 (c) 1998 Paul Quinn
#
DISCID=7408510a
DTITLE=Texas Pride - Lost in Europe
DYEAR=1900
DGENRE=
TTITLE0=I Need a Woman
TTITLE1=She's a Stealer
TTITLE2=Spend My Life Without You
TTITLE3=I'll Never Find Another Love Like You
TTITLE4=I Thank My Lucky Stars For You
TTITLE5=Sad Songs
TTITLE6=Good Run of Bad Luck
TTITLE7=The First Step is the Two Step
TTITLE8=Addicted to the Dollar
TTITLE9=Thunder Rolls
EXTD=This group got their start here in Germany.  They were stationed at Ramste
EXTD=in AB, with the USAF.  If you get a chance to see them, take it.  They are
EXTD=real good.  I don't have the CD cover with me, so the song titles may not
EXTD=be exact.
EXTT0=
EXTT1=
EXTT2=
EXTT3=
EXTT4=
EXTT5=
EXTT6=
EXTT7=
EXTT8=
EXTT9=
PLAYORDER=
